<?xml version="1.0" encoding="UTF-8" standalone="no"?>
<svg
   xmlns:dc="http://purl.org/dc/elements/1.1/"
   xmlns:cc="http://creativecommons.org/ns#"
   xmlns:rdf="http://www.w3.org/1999/02/22-rdf-syntax-ns#"
   xmlns:svg="http://www.w3.org/2000/svg"
   xmlns="http://www.w3.org/2000/svg"
   xmlns:sodipodi="http://sodipodi.sourceforge.net/DTD/sodipodi-0.dtd"
   xmlns:inkscape="http://www.inkscape.org/namespaces/inkscape"
   width="12mm"
   height="12mm"
   viewBox="0 0 12 12"
   version="1.1"
   id="svg8"
   inkscape:version="1.0.1 (0767f8302a, 2020-10-17)"
   sodipodi:docname="ngext-icon-tiny.svg"
   inkscape:export-filename="/home/ben/projects/ngext/docs/imgs/ngext-icon-tiny.png"
   inkscape:export-xdpi="541.86664"
   inkscape:export-ydpi="541.86664">
  <defs
     id="defs2" />
  <sodipodi:namedview
     id="base"
     pagecolor="#ffffff"
     bordercolor="#666666"
     borderopacity="1.0"
     inkscape:pageopacity="0.0"
     inkscape:pageshadow="2"
     inkscape:zoom="3.7097974"
     inkscape:cx="30.260976"
     inkscape:cy="29.732037"
     inkscape:document-units="mm"
     inkscape:current-layer="layer1"
     inkscape:document-rotation="0"
     showgrid="false"
     fit-margin-top="2"
     fit-margin-left="2"
     fit-margin-right="2"
     fit-margin-bottom="2"
     inkscape:window-width="1528"
     inkscape:window-height="836"
     inkscape:window-x="72"
     inkscape:window-y="27"
     inkscape:window-maximized="1"
     lock-margins="false" />
  <metadata
     id="metadata5">
    <rdf:RDF>
      <cc:Work
         rdf:about="">
        <dc:format>image/svg+xml</dc:format>
        <dc:type
           rdf:resource="http://purl.org/dc/dcmitype/StillImage" />
        <dc:title></dc:title>
      </cc:Work>
    </rdf:RDF>
  </metadata>
  <g
     inkscape:label="Layer 1"
     inkscape:groupmode="layer"
     id="layer1"
     transform="translate(-18.356215,-58.505423)">
    <path
       d="m 24.335288,66.866764 c 0,0.0689 -0.02584,0.12919 -0.07751,0.180867 -0.05168,0.04823 -0.111969,0.07235 -0.180867,0.07235 H 23.61182 c -0.189479,-0.378959 -0.525375,-1.00252 -1.007687,-1.870681 -0.482312,-0.868161 -0.91467,-1.658808 -1.297074,-2.37194 v 4.242621 l -0.479794,2.065917 -0.47105,-2.065917 V 60.7638 c 0,-0.0689 0.02584,-0.12919 0.07752,-0.180867 0.05167,-0.05167 0.111962,-0.07751 0.180867,-0.07751 h 0.537433 c 0,0.0035 0.02928,0.06203 0.08785,0.175699 0.05857,0.113688 0.136081,0.265272 0.232543,0.454751 0.09646,0.18948 0.206705,0.404798 0.330728,0.645954 0.127468,0.241156 0.256659,0.490925 0.387572,0.749306 0.134358,0.258381 0.266994,0.51504 0.397907,0.769976 0.130913,0.251491 0.251491,0.484035 0.361734,0.69763 0.110243,0.21015 0.20326,0.389294 0.279052,0.537433 0.07924,0.148139 0.130913,0.246324 0.155029,0.294555 v -4.325304 h 0.950843 z"
       style="font-style:normal;font-variant:normal;font-weight:bold;font-stretch:normal;font-size:10.5833px;line-height:1.25;font-family:Uroob;-inkscape-font-specification:'Uroob Bold';fill:#000000;fill-opacity:1;stroke:none;stroke-width:0.264583"
       id="path837"
       sodipodi:nodetypes="scscsccccssscssccccccccs" />
    <path
       d="m 26.650385,62.081541 q 0.41341,0 0.749306,0.242879 v -0.242879 h 0.811317 l 0.0052,5.984112 q 0,0.485757 -0.248046,0.888832 -0.248047,0.397907 -0.713133,0.397907 h -1.136878 q -0.366901,0 -0.656288,-0.237711 -0.294555,-0.237711 -0.294555,-0.594277 v -0.330728 h 0.785479 q -0.0052,0.165364 0.103353,0.273884 0.113687,0.10852 0.279051,0.10852 h 0.459919 q 0.335896,-0.0052 0.48059,-0.222208 0.05168,-0.07235 0.04651,-0.175699 v -1.32808 q -0.346231,0.253214 -0.568439,0.253214 h -0.568439 q -0.676959,0 -1.007687,-0.41341 -0.330728,-0.413411 -0.330728,-1.116208 v -2.06705 q 0,-0.661457 0.387572,-1.038693 0.39274,-0.382405 1.054196,-0.382405 z m 0.671791,3.741362 v -2.599316 q -0.0052,-0.237711 -0.366901,-0.351399 -0.09302,-0.03101 -0.160197,-0.03101 h -0.444416 q -0.532265,0 -0.599444,0.465087 -0.02067,0.144693 -0.02067,0.320393 v 1.875848 q 0,0.387572 0.08785,0.542601 0.165364,0.289387 0.532265,0.289387 h 0.444416 q 0.149861,0 0.335896,-0.175699 0.191202,-0.180867 0.191202,-0.335896 z"
       style="font-style:normal;font-variant:normal;font-weight:bold;font-stretch:normal;font-size:10.5833px;line-height:1.25;font-family:Uroob;-inkscape-font-specification:'Uroob Bold';fill:#000080;fill-opacity:1;stroke:none;stroke-width:0.264583"
       id="path839" />
  </g>
</svg>
